<svg
  fill="#260d49"
   viewBox="0 0 100 100"
   id="svg1"
   xmlns="http://www.w3.org/2000/svg"><g
     id="layer2"><path
       style="stroke-width:0.264583"
       d="m 50.604089,38.183084 c 0,0 0.327966,5.225984 1.576747,8.734001 0.587433,1.65019 1.364831,5.175047 2.800839,7.56674 1.643301,2.736943 2.517126,3.784259 2.522972,4.216918 0.0059,0.43529 -0.907069,1.386052 -1.572046,2.046548 -0.66836,0.663858 -1.528445,1.360436 -2.520478,1.648979 -1.190792,0.346355 -1.619202,0.280535 -2.601356,-0.343118 0,0 0.3742,-0.09746 0.438239,-0.644277 0.05626,-0.48034 -0.317456,-0.590359 -0.317456,-0.590359 0,0 -2.027361,1.342162 -2.507727,1.203741 -0.379593,-0.109383 -3.881598,-4.217777 -5.241431,-5.44157 -1.359833,-1.223794 -3.067145,-2.2963 -3.067145,-2.2963 0,0 -2.190843,0.948582 -2.751787,2.974355 -1.541363,5.566425 3.09853,7.50983 6.025654,10.873235 0.977214,1.160105 1.625899,1.953468 1.896251,4.334641 0.305034,2.68664 -1.593482,6.402523 -3.073344,8.481516 C 39.74648,84.411863 32.754651,87.8671 32.754651,87.8671 21.573065,82.016725 16.764723,72.393335 16.497188,60.253608 c 0.03802,-5.927255 2.18397,-11.830618 5.012399,-15.698991 2.780944,-3.80343 7.774405,-7.994289 10.760226,-9.55191 4.868965,-2.540004 6.55733,-1.327985 6.55733,-1.327985 z"
       id="path1" /><path
       style=";stroke-width:0.264583"
       d="m 49.672607,37.864386 c 0,0 1.273301,0.420655 2.699952,0.553002 1.537905,0.142667 2.635579,0.123728 2.634892,0.227707 -0.0017,0.253757 -1.000865,0.856041 -2.082183,1.47904 -1.240505,0.714716 -2.114127,0.960676 -2.114127,0.960676 z"
       id="path2" /><path
       style="stroke-width:0.264583"
       d="m 39.100506,34.090958 c 0,0 -2.43497,-2.436074 -3.602716,-3.716252 -2.084578,-2.285283 -4.185549,-3.690274 -4.659786,-3.765543 -0.501968,-0.07967 -1.954373,0.188782 -3.090306,0.683123 -3.559348,1.548973 -6.472124,2.85864 -10.116687,3.968602 -1.283776,0.390977 -2.584325,0.803858 -3.740897,0.325295 -0.824878,-0.341316 -1.568942,-0.799756 -1.724066,-2.049359 -0.102912,-0.829004 -0.674227,0.95651 -0.553002,1.463828 0.317507,1.328746 1.720584,2.359753 3.025247,2.76501 4.286432,1.331459 13.764238,-1.442697 14.215408,-1.366239 0.313012,0.05304 0.870734,0.470935 1.782913,1.463005 0.91155,0.991385 1.632691,2.212833 1.632691,2.212833 z"
       id="path3" /><path
       style="stroke-width:0.264583"
       d="m 15.166041,72.990834 c -4.124196,0.320545 -5.9614827,-2.554427 -5.9927107,-3.702913 -0.049608,-1.824449 1.6852007,-4.091062 4.8143717,-5.725199 2.210222,-1.154237 -4.4697791,-0.194335 -6.5059078,1.561417 -3.2479736,2.800723 -3.5966886,4.57478 -3.7408971,8.132386 0,0 0.9619612,1.342711 2.6762528,2.256247 1.3975995,0.744772 3.5461375,1.095206 4.0248321,1.094296 0.591645,-0.0011 2.489509,-0.729569 4.89746,-3.272438 0.208463,-0.220144 0.128876,-0.36729 -0.173401,-0.343796 z"
       id="path4" /><path
       style="opacity:1;stroke-width:0.264583"
       d="m 49.938353,70.334723 c 2.533897,-0.443312 7.191779,-1.648567 11.070718,-4.823655 4.795653,-3.92546 8.167391,-11.67149 7.337359,-16.122505 C 66.282967,38.323324 55.059258,33.747965 52.793686,32.930527 52.57464,32.851493 52.447582,32.611606 52.520344,32.389824 53.263801,30.12375 57.493887,18.828152 69.961906,11.630654 80.750411,5.4027006 90.222636,7.1000497 92.873789,7.7669919 c 0.409884,0.1031132 0.409587,0.3123723 0.01047,0.4535389 -3.210407,1.1355159 -15.981839,6.1858732 -16.192361,14.7348682 -0.205226,8.33392 9.736691,10.107493 13.067469,10.467612 0.59008,0.0638 0.626996,0.275274 0.09644,0.542321 -2.447586,1.231951 -8.89723,5.050837 -12.26662,12.466207 -2.967226,6.530287 -0.897288,14.758015 -0.897288,14.758015 0,0 -3.935983,0.386117 -10.657864,4.397299 -5.078841,3.030723 -7.974763,7.00587 -7.974763,7.00587 0,0 -2.144169,-0.655685 -4.892148,-1.281908 -1.049035,-0.239059 -2.251851,-0.415877 -3.225279,-0.535614 -1.03041,-0.126747 -1.027489,-0.261328 -0.0035,-0.440478 z"
       id="path5" /><path
       style="display:inline;opacity:1;stroke-width:0.264583"
       d="m 14.437697,63.366585 c -0.112532,1.482758 -0.919289,7.97388 -3.479632,10.557772 -0.917418,0.925855 4.099366,-8.887649 1.233796,-9.610155 -1.500036,-0.378209 0.967317,-0.659334 1.987708,-1.105347 0.154766,-0.06765 0.270868,-0.01014 0.258128,0.15773 z"
       id="path7" /></g></svg>
